<?xml version="1.0" encoding="UTF-8"?>
<svg xmlns="http://www.w3.org/2000/svg" width="190" height="70" viewBox="0 0 190 70" fill="none">
  <g clip-path="url(#clip0_2958_62224)">
    <path d="M42.9714 23.1288C42.9714 21.683 41.7996 20.5156 40.3593 20.5156C38.9188 20.5156 37.7461 21.683 37.7461 23.1288C37.7461 24.5692 38.9188 25.7366 40.3593 25.7366C41.7996 25.7366 42.9714 24.5692 42.9714 23.1288Z" fill="url(#paint0_linear_2958_62224)"></path>
    <path d="M46.4529 43.523C46.3562 45.6439 46.0015 46.7962 45.707 47.5615C45.3114 48.5762 44.8395 49.3018 44.0742 50.0628C43.3174 50.8239 42.5918 51.2947 41.5771 51.686C40.8118 51.9848 39.6552 52.3406 37.5343 52.4417C35.2415 52.5427 34.5622 52.5643 28.7479 52.5643C22.9391 52.5643 22.2542 52.5427 19.9614 52.4417C17.8407 52.3406 16.6894 51.9848 15.924 51.686C14.9039 51.2947 14.1838 50.8239 13.4227 50.0628C12.6563 49.3018 12.1844 48.5762 11.7942 47.5615C11.4996 46.7962 11.1396 45.6439 11.0481 43.523C10.9364 41.2302 10.9159 40.5401 10.9159 34.7376C10.9159 28.9234 10.9364 28.2386 11.0481 25.9458C11.1396 23.825 11.4996 22.6738 11.7942 21.902C12.1844 20.8883 12.6563 20.167 13.4227 19.406C14.1838 18.646 14.9039 18.1741 15.924 17.7786C16.6894 17.4787 17.8407 17.1282 19.9614 17.0272C22.2542 16.9261 22.9391 16.9003 28.7479 16.9003C34.5622 16.9003 35.2415 16.9261 37.5343 17.0272C39.6552 17.1282 40.8118 17.4787 41.5771 17.7786C42.5918 18.1741 43.3174 18.646 44.0742 19.406C44.8395 20.167 45.3114 20.8883 45.707 21.902C46.0015 22.6738 46.3562 23.825 46.4529 25.9458C46.5594 28.2386 46.5852 28.9234 46.5852 34.7376C46.5852 40.5401 46.5594 41.2302 46.4529 43.523ZM50.3689 25.7674C50.2626 23.4498 49.897 21.8665 49.3542 20.4874C48.8018 19.0566 48.0611 17.8441 46.8485 16.6316C45.6414 15.4245 44.4289 14.6838 42.9982 14.1249C41.6137 13.5874 40.0357 13.2176 37.717 13.1166C35.3984 13.0048 34.6579 12.9844 28.7479 12.9844C22.8433 12.9844 22.0974 13.0048 19.7787 13.1166C17.4655 13.2176 15.8885 13.5874 14.4976 14.1249C13.0723 14.6838 11.8597 15.4245 10.6526 16.6316C9.44011 17.8441 8.69946 19.0566 8.14157 20.4874C7.60408 21.8665 7.23863 23.4498 7.12681 25.7674C7.0258 28.086 7 28.8277 7 34.7376C7 40.6423 7.0258 41.3828 7.12681 43.7014C7.23863 46.0147 7.60408 47.597 8.14157 48.9826C8.69946 50.4079 9.44011 51.6259 10.6526 52.8329C11.8597 54.0401 13.0723 54.7861 14.4976 55.344C15.8885 55.8814 17.4655 56.2469 19.7787 56.3533C22.0974 56.4598 22.8433 56.4856 28.7479 56.4856C34.6579 56.4856 35.3984 56.4598 37.717 56.3533C40.0357 56.2469 41.6137 55.8814 42.9982 55.344C44.4289 54.7861 45.6414 54.0401 46.8485 52.8329C48.0611 51.6259 48.8018 50.4079 49.3542 48.9826C49.897 47.597 50.2626 46.0147 50.3689 43.7014C50.4754 41.3828 50.5012 40.6423 50.5012 34.7376C50.5012 28.8277 50.4754 28.086 50.3689 25.7674Z" fill="url(#paint1_linear_2958_62224)"></path>
    <path d="M28.7473 41.9902C24.7453 41.9902 21.498 38.7482 21.498 34.7462C21.498 30.7378 24.7453 27.4916 28.7473 27.4916C32.7504 27.4916 36.002 30.7378 36.002 34.7462C36.002 38.7482 32.7504 41.9902 28.7473 41.9902ZM28.7473 23.5703C22.5783 23.5703 17.582 28.5772 17.582 34.7462C17.582 40.9099 22.5783 45.9115 28.7473 45.9115C34.9162 45.9115 39.9179 40.9099 39.9179 34.7462C39.9179 28.5772 34.9162 23.5703 28.7473 23.5703Z" fill="url(#paint2_linear_2958_62224)"></path>
  </g>
  <g clip-path="url(#clip1_2958_62224)">
    <path d="M64.1216 17.1076C61.5554 18.1815 58.7336 21.2123 57.8429 25.0243C56.713 29.85 61.4109 31.888 61.7948 31.2231C62.2464 30.4345 60.9502 30.1698 60.6855 27.6676C60.345 24.4318 61.8453 20.8167 63.7386 19.2304C64.0918 18.9404 64.0747 19.3496 64.0747 20.104C64.0747 21.4644 63.9988 33.6359 63.9988 36.177C63.9988 39.6169 63.8579 40.6999 63.5977 41.7694C63.3421 42.857 62.9284 43.5905 63.24 43.876C63.5932 44.1912 65.0936 43.4407 65.9634 42.2265C67.004 40.7721 67.3707 39.0242 67.4384 37.1273C67.5152 34.8428 67.5107 31.2104 67.5152 29.1427C67.5152 27.2411 67.545 21.6821 67.4854 18.3352C67.4682 17.5168 65.192 16.6595 64.1216 17.1076ZM182.435 35.1661C182.068 35.1661 181.894 35.55 181.753 36.1942C181.267 38.4407 180.756 38.9475 180.095 38.9475C179.358 38.9475 178.696 37.8356 178.522 35.6097C178.39 33.8617 178.411 30.6387 178.582 27.4327C178.616 26.776 178.436 26.1247 176.671 25.4807C175.909 25.2078 174.804 24.7986 174.255 26.1283C172.699 29.8763 172.093 32.86 171.948 34.0668C171.945 34.13 171.868 34.1391 171.854 33.9945C171.766 33.0262 171.561 31.2656 171.535 27.5647C171.526 26.8492 171.377 26.2304 170.576 25.7273C170.06 25.4038 168.491 24.8239 167.924 25.5105C167.438 26.0732 166.872 27.5827 166.279 29.3731C165.801 30.8311 165.469 31.8202 165.469 31.8202C165.469 31.8202 165.472 27.8889 165.482 26.3966C165.482 25.8338 165.098 25.6469 164.983 25.6125C164.458 25.459 163.422 25.2078 162.988 25.2078C162.447 25.2078 162.318 25.5105 162.318 25.9495C162.318 26.0046 162.229 31.1202 162.229 34.6974V35.2004C161.934 36.8464 160.963 39.0804 159.91 39.0804C158.857 39.0804 158.358 38.1463 158.358 33.8834C158.358 31.3975 158.435 30.3153 158.469 28.5159C158.49 27.4797 158.533 26.6829 158.529 26.4996C158.52 25.9495 157.561 25.6676 157.117 25.5655C156.67 25.459 156.282 25.4246 155.976 25.4373C155.549 25.4634 155.247 25.7444 155.247 26.1374V26.7335C154.697 25.8645 153.805 25.2584 153.209 25.0841C151.615 24.6107 149.947 25.0326 148.69 26.7886C147.692 28.1879 147.091 29.7688 146.857 32.0416C146.682 33.7046 146.738 35.3884 147.049 36.8121C146.674 38.4191 145.983 39.0804 145.228 39.0804C144.128 39.0804 143.336 37.2891 143.425 34.1896C143.49 32.1527 143.894 30.7245 144.341 28.6522C144.534 27.7697 144.376 27.3099 143.988 26.8618C143.634 26.4607 142.875 26.2521 141.789 26.5032C141.016 26.6866 139.904 26.8826 138.894 27.0325C138.894 27.0325 138.953 26.7886 139.005 26.3587C139.265 24.103 136.813 24.2864 136.033 25.0073C135.564 25.4373 135.245 25.9449 135.125 26.8573C134.934 28.3072 136.114 28.9892 136.114 28.9892C135.727 30.7625 134.78 33.0813 133.796 34.757C133.271 35.6567 132.87 36.318 132.35 37.0252C132.346 36.7651 132.346 36.5003 132.346 36.2411C132.337 32.5104 132.384 29.5736 132.405 28.5159C132.427 27.4797 132.469 26.7038 132.469 26.5203C132.46 26.1193 132.227 25.9621 131.731 25.7742C131.297 25.6044 130.781 25.4807 130.248 25.4373C129.579 25.3867 129.17 25.7444 129.183 26.1663V26.7335C128.629 25.8645 127.737 25.2584 127.149 25.0841C125.55 24.6107 123.884 25.0326 122.626 26.7886C121.633 28.1879 120.976 30.1446 120.788 32.0199C120.619 33.7768 120.648 35.2601 120.887 36.5139C120.631 37.7668 119.902 39.0804 119.076 39.0804C118.022 39.0804 117.421 38.1463 117.421 33.8834C117.421 31.3975 117.498 30.3153 117.537 28.5159C117.557 27.4797 117.596 26.6829 117.592 26.4996C117.587 25.9495 116.629 25.6676 116.181 25.5655C115.716 25.4553 115.311 25.421 115.004 25.4373C114.595 25.4716 114.309 25.8338 114.309 26.1111V26.7335C113.755 25.8645 112.864 25.2584 112.271 25.0841C110.677 24.6107 109.023 25.0416 107.757 26.7886C106.93 27.9278 106.261 29.1934 105.916 31.9991C105.822 32.8094 105.775 33.5673 105.779 34.2755C105.451 36.2872 103.997 38.6069 102.812 38.6069C102.113 38.6069 101.448 37.2591 101.448 34.3821C101.448 30.5538 101.687 25.0967 101.729 24.5683C101.729 24.5683 103.23 24.542 103.524 24.5385C104.27 24.5339 104.952 24.5511 105.946 24.4996C106.449 24.4744 106.93 22.6794 106.41 22.4536C106.18 22.3551 104.526 22.2656 103.869 22.253C103.315 22.2404 101.784 22.1257 101.784 22.1257C101.784 22.1257 101.922 18.506 101.951 18.1266C101.977 17.8023 101.568 17.6406 101.329 17.5421C100.753 17.2955 100.237 17.1799 99.6318 17.0561C98.7836 16.8818 98.4043 17.0526 98.332 17.7635C98.2209 18.8429 98.1614 22.0064 98.1614 22.0064C97.5389 22.0064 95.429 21.8818 94.8101 21.8818C94.2356 21.8818 93.6124 24.3551 94.41 24.3849C95.3269 24.4192 96.9166 24.4536 97.9734 24.4824C97.9734 24.4824 97.9263 30.0298 97.9263 31.7389V32.2674C97.3429 35.2979 95.3007 36.9358 95.3007 36.9358C95.7396 34.9278 94.8445 33.4227 93.2248 32.1527C92.6279 31.6793 91.4517 30.7877 90.1339 29.8202C90.1339 29.8202 90.8971 29.066 91.5746 27.5565C92.0525 26.4861 92.0742 25.2548 90.8971 24.9856C88.9533 24.5385 87.3546 25.9666 86.8731 27.4924C86.5064 28.6694 86.6987 29.5474 87.4268 30.4553L87.5929 30.6603C87.1586 31.504 86.5533 32.6422 86.0457 33.5248C84.6266 35.9765 83.5562 37.9123 82.7505 37.9123C82.1029 37.9123 82.111 35.9468 82.111 34.1048C82.111 32.5185 82.2303 30.1274 82.3242 27.6549C82.3541 26.8401 81.9448 26.3713 81.2593 25.9495C80.8409 25.6938 79.9539 25.1907 79.4382 25.1907C78.6714 25.1907 76.4456 25.2927 74.3447 31.3677C74.08 32.1355 73.5597 33.5294 73.5597 33.5294L73.6067 26.2223C73.6067 26.0515 73.5173 25.8899 73.3086 25.7742C72.9545 25.5827 72.0043 25.1907 71.1688 25.1907C70.7632 25.1907 70.5626 25.3785 70.5626 25.7489L70.4949 37.1743C70.4949 38.0442 70.5157 39.0586 70.6015 39.5021C70.6864 39.9457 70.8273 40.3079 70.998 40.5248C71.1688 40.7343 71.3684 40.896 71.6926 40.9684C71.9953 41.0324 73.6618 41.241 73.7476 40.6061C73.8542 39.8427 73.8578 39.0207 74.7322 35.9385C76.0962 31.1463 77.8702 28.8103 78.7057 27.9783C78.8548 27.8338 79.0209 27.8248 79.0119 28.0642C78.9739 29.1165 78.8502 31.7389 78.7653 33.9684C78.5394 39.9413 79.6215 41.0451 81.1779 41.0451C82.363 41.0451 84.0342 39.8644 85.8289 36.8807C86.9499 35.0172 88.0329 33.1969 88.8169 31.8798C89.3544 32.3821 89.9678 32.9241 90.5774 33.504C91.9973 34.8465 92.4616 36.1256 92.151 37.3369C91.916 38.2654 91.0254 39.2203 89.4437 38.2917C88.9832 38.0225 88.7872 37.8139 88.3228 37.5066C88.0753 37.3405 87.6914 37.2935 87.4657 37.4642C86.8685 37.9123 86.5315 38.4788 86.3356 39.1825C86.1522 39.869 86.8388 40.2266 87.5506 40.5419C88.1602 40.8193 89.4736 41.0622 90.3128 41.0921C93.5826 41.2032 96.2003 39.5148 98.0204 35.1661C98.3491 38.9223 99.7339 41.0497 102.143 41.0497C103.758 41.0497 105.374 38.9647 106.082 36.9141C106.282 37.7497 106.584 38.4742 106.973 39.0931C108.832 42.0341 112.438 41.4036 114.245 38.9051C114.808 38.129 114.894 37.8518 114.894 37.8518C115.157 40.2104 117.059 41.0405 118.146 41.0405C119.369 41.0405 120.623 40.4616 121.505 38.4742C121.611 38.6919 121.722 38.897 121.851 39.0931C123.705 42.0341 127.311 41.4036 129.123 38.9051C129.204 38.7813 129.281 38.6792 129.344 38.5809L129.4 40.1326C129.4 40.1326 128.364 41.0794 127.729 41.6629C124.937 44.2257 122.814 46.1697 122.656 48.4289C122.46 51.315 124.796 52.3856 126.569 52.5255C128.445 52.6755 130.057 51.6392 131.045 50.1813C131.915 48.9022 132.487 46.1526 132.444 43.4326C132.427 42.3413 132.401 40.9601 132.375 39.4724C133.36 38.3387 134.468 36.8969 135.484 35.2096C136.596 33.3758 137.781 30.907 138.386 28.9847C138.386 28.9847 139.422 28.9937 140.522 28.9251C140.876 28.9034 140.978 28.9766 140.91 29.2322C140.833 29.5429 139.52 34.6124 140.718 37.9891C141.541 40.299 143.386 41.0451 144.487 41.0451C145.769 41.0451 146.998 40.0731 147.653 38.6323C147.735 38.7903 147.816 38.9475 147.91 39.0931C149.764 42.0341 153.358 41.3992 155.182 38.9051C155.596 38.3387 155.826 37.8518 155.826 37.8518C156.218 40.2953 158.12 41.0497 159.206 41.0497C160.344 41.0497 161.418 40.5852 162.293 38.5212C162.327 39.43 162.382 40.1715 162.476 40.4055C162.531 40.551 162.856 40.7299 163.086 40.8193C164.126 41.2032 165.183 41.0198 165.571 40.9384C165.844 40.8833 166.057 40.6702 166.083 40.1075C166.159 38.6323 166.112 36.1553 166.56 34.3098C167.314 31.2231 168.013 30.0253 168.346 29.4327C168.53 29.0994 168.742 29.0443 168.747 29.3939C168.759 30.1057 168.798 32.1951 169.092 35.0089C169.301 37.0722 169.587 38.2954 169.808 38.6838C170.431 39.7876 171.206 39.839 171.833 39.839C172.234 39.839 173.07 39.728 172.997 39.0242C172.959 38.6838 173.023 36.5646 173.76 33.5212C174.246 31.5303 175.052 29.7354 175.342 29.0786C175.453 28.8356 175.5 29.0235 175.5 29.0615C175.435 30.43 175.299 34.9105 175.853 37.3577C176.612 40.6792 178.798 41.0497 179.562 41.0497C181.186 41.0497 182.521 39.813 182.968 36.5565C183.079 35.7714 182.917 35.1661 182.435 35.1661ZM114.275 33.1544C114.185 34.8762 113.848 36.3178 113.312 37.3621C112.331 39.2591 110.401 39.8561 109.552 37.1236C108.934 35.1499 109.142 32.4552 109.403 31.0009C109.777 28.8437 110.728 27.318 112.212 27.4579C113.729 27.6079 114.471 29.5646 114.275 33.1544ZM129.148 33.1797C129.063 34.8039 128.641 36.4407 128.181 37.3621C127.231 39.2717 125.243 39.8688 124.421 37.1236C123.859 35.2429 123.991 32.8174 124.271 31.2908C124.634 29.3044 125.508 27.4579 127.082 27.4579C128.612 27.4579 129.366 29.1381 129.148 33.1797ZM129.537 44.2807C129.515 47.2527 129.051 49.8534 128.053 50.6122C126.629 51.6862 124.715 50.876 125.112 48.7107C125.461 46.7921 127.12 44.8355 129.541 42.4434C129.541 42.4434 129.55 42.9889 129.537 44.2807ZM155.217 33.1968C155.131 34.9836 154.734 36.3775 154.245 37.3621C153.294 39.2717 151.324 39.8644 150.484 37.1236C150.028 35.6268 150.007 33.1282 150.335 31.0442C150.668 28.9205 151.602 27.318 153.145 27.4579C154.67 27.6034 155.383 29.5646 155.217 33.1968Z" fill="#231E1F"></path>
  </g>
  <defs>
    <linearGradient id="paint0_linear_2958_62224" x1="7.39132" y1="56.0393" x2="46.8769" y2="16.5538" gradientUnits="userSpaceOnUse">
      <stop stop-color="#FFD521"></stop>
      <stop offset="0.05" stop-color="#FFD521"></stop>
      <stop offset="0.501119" stop-color="#F50000"></stop>
      <stop offset="0.95" stop-color="#B900B4"></stop>
      <stop offset="0.950079" stop-color="#B900B4"></stop>
      <stop offset="1" stop-color="#B900B4"></stop>
    </linearGradient>
    <linearGradient id="paint1_linear_2958_62224" x1="7.39237" y1="56.09" x2="46.9104" y2="16.5719" gradientUnits="userSpaceOnUse">
      <stop stop-color="#FFD521"></stop>
      <stop offset="0.05" stop-color="#FFD521"></stop>
      <stop offset="0.501119" stop-color="#F50000"></stop>
      <stop offset="0.95" stop-color="#B900B4"></stop>
      <stop offset="0.950079" stop-color="#B900B4"></stop>
      <stop offset="1" stop-color="#B900B4"></stop>
    </linearGradient>
    <linearGradient id="paint2_linear_2958_62224" x1="7.40199" y1="56.0996" x2="46.9105" y2="16.5911" gradientUnits="userSpaceOnUse">
      <stop stop-color="#FFD521"></stop>
      <stop offset="0.05" stop-color="#FFD521"></stop>
      <stop offset="0.501119" stop-color="#F50000"></stop>
      <stop offset="0.95" stop-color="#B900B4"></stop>
      <stop offset="0.950079" stop-color="#B900B4"></stop>
      <stop offset="1" stop-color="#B900B4"></stop>
    </linearGradient>
    <clipPath id="clip0_2958_62224">
      <rect width="43.5556" height="43.5556" fill="white" transform="translate(7 12.9844)"></rect>
    </clipPath>
    <clipPath id="clip1_2958_62224">
      <rect width="125.333" height="35.5556" fill="white" transform="translate(57.668 16.9844)"></rect>
    </clipPath>
  </defs>
</svg>
